<?xml version="1.0" encoding="iso-8859-1"?>
<!-- Generator: Adobe Illustrator 19.0.0, SVG Export Plug-In . SVG Version: 6.00 Build 0)  -->
<svg version="1.1" id="Layer_1" xmlns="http://www.w3.org/2000/svg" xmlns:xlink="http://www.w3.org/1999/xlink" x="0px" y="0px"
	 viewBox="0 0 504 504" style="enable-background:new 0 0 504 504;" xml:space="preserve">
<circle style="fill:#FD8469;" cx="252" cy="252" r="252"/>
<path style="fill:#324A5E;" d="M352,409.6H152c-7.2,0-12.8-5.6-12.8-12.8V107.2c0-7.2,5.6-12.8,12.8-12.8h200
	c7.2,0,12.8,5.6,12.8,12.8v289.2C364.8,403.6,358.8,409.6,352,409.6z"/>
<rect x="164" y="116.8" style="fill:#E6E9EE;" width="176.4" height="139.6"/>
<path style="fill:#F1543F;" d="M252,145.6c9.2-11.6,22-14.4,31.6-10.8c22.8,8.8,28,41.6,8.4,62.4C252,240,252,240,252,240
	s0,0-40-42.8c-19.6-20.8-14-53.6,8.4-62.4C230,131.2,242.8,134,252,145.6z"/>
<rect x="164" y="273.2" style="fill:#4CDBC4;" width="26.8" height="28"/>
<g>
	<rect x="215.2" y="273.2" style="fill:#FFD05B;" width="26.8" height="28"/>
	<rect x="266.8" y="273.2" style="fill:#FFD05B;" width="26.8" height="28"/>
</g>
<rect x="313.2" y="273.2" style="fill:#FF7058;" width="26.8" height="28"/>
<g>
	<rect x="164" y="317.2" style="fill:#4CDBC4;" width="26.8" height="28"/>
	<rect x="215.2" y="317.2" style="fill:#4CDBC4;" width="26.8" height="28"/>
	<rect x="266.8" y="317.2" style="fill:#4CDBC4;" width="26.8" height="28"/>
	<rect x="313.2" y="317.2" style="fill:#4CDBC4;" width="26.8" height="28"/>
	<rect x="164" y="361.6" style="fill:#4CDBC4;" width="26.8" height="28"/>
	<rect x="215.2" y="361.6" style="fill:#4CDBC4;" width="26.8" height="28"/>
	<rect x="266.8" y="361.6" style="fill:#4CDBC4;" width="26.8" height="28"/>
	<rect x="313.2" y="361.6" style="fill:#4CDBC4;" width="26.8" height="28"/>
</g>
<g>
</g>
<g>
</g>
<g>
</g>
<g>
</g>
<g>
</g>
<g>
</g>
<g>
</g>
<g>
</g>
<g>
</g>
<g>
</g>
<g>
</g>
<g>
</g>
<g>
</g>
<g>
</g>
<g>
</g>
</svg>
